# xmcd
#
# Track frame offsets: 
#        150
#        15145
#        32572
#        46396
#        61833
#        78211
#        92047
#        110976
#        129966
#        147418
#        171445
#        183997
#
# Disc length: 2618 seconds
#
# Revision: 2
# Processed by: cddbd v1.4PL0 Copyright (c) Steve Scherf et al.
# Submitted via: ExactAudioCopy v0.90b2
#
DISCID=960a380c
DTITLE=aBLe - Lost Love Songs
DYEAR=1999
DGENRE=
TTITLE0=Trouble Among the Horses
TTITLE1=For a Purpose
TTITLE2=Thrill
TTITLE3=As Long As These Eyes Can See 
TTITLE4=Sail On A Mill
TTITLE5=The End of It
TTITLE6=We Might Never Meet Again
TTITLE7=Screw You Around
TTITLE8=Push Your Luck
TTITLE9=You're My Only One
TTITLE10=Can't Share You
TTITLE11=Anniversary
EXTD=
EXTT0=
EXTT1=
EXTT2=
EXTT3=
EXTT4=
EXTT5=
EXTT6=
EXTT7=
EXTT8=
EXTT9=
EXTT10=
EXTT11=
PLAYORDER=
